<svg xmlns="http://www.w3.org/2000/svg" xmlns:xlink="http://www.w3.org/1999/xlink" width="676" height="60" viewBox="0 -126 680 60"><style>@font-face{font-family:&apos;Montserrat&apos;;font-style:normal;font-weight:400;font-display:swap;src:local(&apos;Montserrat&apos;),url(https://fonts.gstatic.com/s/montserrat/v14/JTUSjIg1_i6t8kCHKm459WlhyyTh89Y.woff2) format(&apos;woff2&apos;)}@font-face{font-family:&apos;Montserrat&apos;;font-style:normal;font-weight:600;font-display:swap;src:local(&apos;Montserrat-Bold&apos;),url(https://fonts.gstatic.com/s/montserrat/v14/JTURjIg1_i6t8kCHKm45_bZF3gnD_vx3rCs.woff2) format(&apos;woff2&apos;)}</style><defs><pattern id="pattern" width="700" height="200" x="0" y="150" patternUnits="userSpaceOnUse"><image width="928" height="619" xlink:href="https://www.gitpod.io/galaxy.jpg"/></pattern></defs><g data-name="g"><path fill="url(#pattern)" stroke="#fff" stroke-linecap="round" stroke-linejoin="round" stroke-width="6" d="M654.281,54.3v-.7h-413.8c.01-.525.939-52.365,0-52.667h413.8V0l.926.926h.28v.28l24.944,25.942-10.944,10.94v.506h-.505l-.7.7Zm-413.8-.7H0V.926l1.711,0C34.927.883,118.569.79,177.709.79c41.371,0,62.49.046,62.772.137Z" transform="translate(-219.129 -446.759) scale(0.999 1.01) translate(222.129 522.483)"/><text fill="#fff" font-family="Montserrat" font-size="18" font-weight="600" transform="translate(-219.129 -446.759) scale(0.999 1.01) translate(735.612 537.528) scale(0.93)"><tspan x="0" y="19">Start Coding</tspan></text><text fill="#fff" font-family="Montserrat" font-size="18" font-weight="600" transform="translate(-219.129 -446.759) scale(0.999 1.01) translate(249.677 537.528) scale(0.925)"><tspan x="0" y="19">Choose Project</tspan></text></g></svg>